<?xml version="1.0" encoding="UTF-8"?>
<svg id="_레이어_1" data-name=" 레이어 1" xmlns="http://www.w3.org/2000/svg" version="1.1" viewBox="0 0 380 100">
  <defs>
    <style>
      .cls-1 {
        fill: #1b3354;
        stroke-width: 0px;
      }
    </style>
  </defs>
  <path class="cls-1" d="M28.8,18.9c8.1,3,12.1,7.5,12.1,13.6s-1.6,7.7-4.8,9.8c-3.2,2.1-7.5,3.1-13,3.1s-9-1.1-12.4-3.4c-.5,0-1.2,0-2.3-.1-1,0-1.6,0-1.7,0-1.5-.1-2.3-.7-2.2-1.7l.5-9.8c0-.6,0-1,.1-1.2,0-.3.2-.5.3-.7.2-.2.4-.3.7-.3s.5,0,.7,0c.2,0,.3.2.4.4.1.2.2.3.2.5,0,.2.1.4.2.7.6,2.1,1.1,3.6,1.5,4.4,1.2,2.5,3.1,4.5,5.8,6,2.6,1.5,5.3,2.2,7.9,2.2s5.4-.6,6.8-1.8c1.4-1.2,2.1-2.8,2.1-4.8s-.2-2-.6-2.8c-.4-.8-.8-1.5-1.4-2.1-.5-.6-1.5-1.2-2.8-1.8s-2.6-1.2-3.7-1.6c-1.1-.4-2.9-1.1-5.3-2-7.9-2.8-11.9-6.9-11.9-12.4s1.4-6.5,4.2-8.7c2.8-2.2,6.8-3.3,12.2-3.3s6.4.7,8.6,2.1c1,0,2.3-.2,3.7-.3,1.3-.1,2,.3,2.1,1.2l1.4,8.4c.1.6.1,1.1,0,1.5-.1.3-.4.5-.8.6-.5,0-.8,0-1-.1-.2-.2-.4-.5-.6-1-.7-1.6-1.4-3-2.2-4-2.4-3.6-6.2-5.4-11.3-5.4s-4.3.5-5.7,1.5c-1.4,1-2.1,2.5-2.1,4.3s.2,1.6.6,2.3c.4.7.9,1.3,1.5,1.8.6.5,1.4,1,2.5,1.5,1.1.5,2,.9,2.8,1.2.8.3,1.9.7,3.3,1.1,1.4.5,2.5.9,3.2,1.1Z"/>
  <path class="cls-1" d="M87.5,32.2c.6.2.8.5.7,1l-1.4,10.2c0,.4-.2.7-.3.8-.1.1-.4.2-.8.2h-35.9c-.7,0-1-.3-1-.8s.3-.8.9-1.1l2.9-1.3V5.1l-2.9-1.3c-.6-.2-.9-.6-.9-1.1s.3-.8,1-.8h35.2c.7,0,1.1.3,1.1.9l.6,10.3c0,.6-.3.9-.8,1,0,0-.2,0-.3,0-.4,0-.7-.2-.9-.6l-4.8-8.6h-16.6v16h12.8l2.3-4.5c.2-.6.6-.8,1.2-.8s.9.3.9.9v12.1c0,.6-.3.9-.9.9s-1-.3-1.2-.8l-2.3-4.5h-12.8v17.2h17.2l5.7-8.7c.2-.3.6-.5,1-.5s0,0,.1,0c0,0,0,0,.1,0Z"/>
  <path class="cls-1" d="M106.8,3.5c3.6-1.7,7.6-2.6,11.9-2.6s8.2.9,11.9,2.6,6.6,4.3,8.9,7.8c2.3,3.4,3.4,7.4,3.4,11.9s-1.1,8.4-3.4,11.9c-2.3,3.4-5.3,6-8.9,7.8-3.6,1.7-7.6,2.6-11.9,2.6s-8.2-.9-11.9-2.6c-3.6-1.7-6.6-4.3-8.9-7.8-2.3-3.4-3.4-7.4-3.4-11.9s1.1-8.4,3.4-11.9c2.3-3.4,5.2-6,8.9-7.8ZM109.1,37.2c2.3,3.3,5.5,5,9.6,5s7.3-1.7,9.7-5c2.3-3.3,3.5-8,3.5-14.1s-1.2-10.8-3.5-14.1c-2.3-3.3-5.6-5-9.7-5s-7.3,1.7-9.6,5c-2.3,3.3-3.5,8.1-3.5,14.1s1.2,10.8,3.5,14.1Z"/>
  <path class="cls-1" d="M196,1.9c.7,0,1,.3,1,.8s-.3.9-.9,1.1l-4.7,1.8v24.1c0,5-1.8,8.9-5.3,11.6-3.5,2.7-8.2,4.1-14,4.1s-10.4-1.4-13.9-4.1c-3.5-2.7-5.3-6.6-5.3-11.6V5.1l-2.9-1.3c-.6-.2-.9-.6-.9-1.1s.3-.8,1-.8h16.3c.7,0,1,.3,1,.8s-.3.8-.9,1.1l-2.9,1.3v24.6c0,3.9,1.1,6.8,3.3,8.9,2.2,2,5.1,3.1,8.7,3.1s6.1-1.1,8.4-3.3c2.3-2.2,3.4-5.2,3.4-8.9V5.5l-4.7-1.8c-.6-.2-.9-.6-.9-1.1s.3-.8,1-.8h13.1Z"/>
  <path class="cls-1" d="M242.2,32.2c.6.2.8.5.7,1l-1.5,10.2c0,.4-.2.7-.3.8-.1.1-.4.2-.8.2h-35.2c-.7,0-1-.3-1-.8s.3-.8.9-1.1l2.9-1.3V5.1l-2.9-1.3c-.6-.2-.9-.6-.9-1.1s.3-.8,1-.8h16.3c.7,0,1,.3,1,.8s-.3.8-.9,1.1l-2.9,1.3v36.2h16.6l5.7-8.7c.2-.3.6-.5,1-.5h.1c0,0,.2,0,.2,0Z"/>
  <path class="cls-1" d="M44.8,58.4c.6,0,.9.3.9.8s-.3.8-.9,1l-4.9,1.9-11.9,17.5v15.7l2.7,1.2c.6.3.9.6.9,1s-.3.8-.9.8h-15.3c-.6,0-.9-.3-.9-.8s.3-.8.9-1l2.7-1.2v-14.9l-12.2-17.9-4-2.3c-.6-.3-.9-.6-.9-1.1s.3-.7.9-.7h17.2c.6,0,.9.2.9.7s-.3.8-.9,1.1l-2.4,1.3,9.6,14.4,9.6-14.2-3.9-1.5c-.5-.2-.8-.5-.8-1s.3-.8.9-.8h12.6Z"/>
  <path class="cls-1" d="M92.6,58.4c.6,0,.9.3.9.8s-.3.8-.9,1l-4.4,1.7v22.6c0,4.7-1.7,8.3-5,10.9-3.3,2.5-7.7,3.8-13.1,3.8s-9.7-1.3-13-3.8c-3.3-2.5-4.9-6.2-4.9-10.9v-23l-2.7-1.2c-.6-.2-.9-.6-.9-1s.3-.8.9-.8h15.3c.6,0,.9.3.9.8s-.3.8-.9,1l-2.7,1.2v23c0,3.6,1,6.4,3.1,8.3s4.7,2.9,8.1,2.9,5.8-1,7.9-3.1c2.1-2.1,3.2-4.8,3.2-8.4v-22.3l-4.4-1.7c-.6-.2-.9-.5-.9-1s.3-.8.9-.8h12.3Z"/>
  <path class="cls-1" d="M143.6,96.3c.6.2.9.6.9,1.1s-.4.8-1.3.8h-5.8c-2.7,0-4.6-.2-5.7-.6-1.2-.4-2.4-1.3-3.6-2.8-1.1-1.2-2.6-3.4-4.6-6.5-2-3.2-3.6-5.3-4.7-6.5-1.3-1.4-2.7-2.1-4.1-2.1h-.9v15.4l2.8,1.3c.6.2.9.6.9,1s-.3.8-.9.8h-15.5c-.6,0-.9-.3-.9-.8s.3-.8.9-1l2.8-1.3v-33.8l-2.8-1.2c-.6-.2-.9-.6-.9-1s.3-.8.9-.8h16.9c5.8,0,10.2.9,13,2.8,2.9,1.8,4.3,4.5,4.3,7.9s-.8,4-2.5,5.6c-1.6,1.6-3.9,2.9-6.6,3.7,1.1.5,2.1,1.3,3.2,2.4,1,1,2.4,3,4.4,5.8,2,2.8,3.6,4.9,5,6.4,1.4,1.5,3.1,2.6,5.1,3.3ZM116.8,61.3h-3.1v15.5h2.7c2.8,0,4.9-.7,6.5-2.1,1.5-1.4,2.3-3.3,2.3-5.6s-.6-4.5-1.9-5.8c-1.3-1.3-3.4-1.9-6.4-1.9Z"/>
  <path class="cls-1" d="M184.6,97.5c0,.5-.3.7-.9.7h-16.5c-.6,0-.9-.2-.9-.7s.3-.8.9-1.1l2.8-1.6-3.5-9.3h-12.9l-3.8,9.3,4.1,1.6c.6.2.9.5.9,1s-.3.8-.9.8h-12.8c-.6,0-.9-.3-.9-.8s.3-.8.9-1l4.6-1.8,13.7-32.5c.4-1,.9-2,1.4-2.9.6-1.1,1.4-1.7,2.4-1.7s1.8.6,2.4,1.7c.7,1.3,1.2,2.3,1.5,2.9l13.7,32.5,3.2,1.8c.6.3.9.6.9,1.1ZM154.7,82.6h10.7l-5.1-13.7-5.6,13.7Z"/>
  <path class="cls-1" d="M240,96.4c.6.2.9.6.9,1s-.3.8-.9.8h-15.3c-.6,0-.9-.3-.9-.8s.3-.8.9-1l2.7-1.2v-29.5l-10.4,25c-1.1,2.6-1.9,4.4-2.4,5.5-.7,1.4-1.5,2.1-2.3,2.1s-1.6-.7-2.3-2.1c-.5-1-1.3-2.9-2.4-5.5l-10.4-25v29l4.4,1.7c.6.2.9.5.9,1s-.3.8-.9.8h-12.3c-.6,0-.9-.3-.9-.8s.3-.8.9-1l4.4-1.7v-33.3l-3.1-1.2c-.6-.2-.9-.5-.9-1s.3-.8.9-.8h14.3l10.9,26.3,11.1-26.3h13.3c.6,0,.9.3.9.8s-.3.8-.9,1l-2.7,1.2v33.8l2.7,1.2Z"/>
</svg>