<?xml version="1.0" encoding="UTF-8"?>
<svg id="_레이어_1" data-name=" 레이어 1" xmlns="http://www.w3.org/2000/svg" version="1.1" viewBox="0 0 380 100">
  <defs>
    <style>
      .cls-1 {
        fill: #1b3354;
        stroke-width: 0px;
      }
    </style>
  </defs>
  <path class="cls-1" d="M14.8,47.9c-.8,0-1.5-.3-1.9-1-3.4-6.3-7.7-12.7-12.3-18.4-.4-.5-.6-.9-.6-1.4,0-1.6,2-2.8,3.6-2.8s1.4.3,1.8.7c3,3.7,10.8,12.6,13.5,18.5,0,.3.2.6.2.8,0,1.8-2.4,3.6-4.4,3.6ZM4.6,85.1c0-.6.8-1.6,2.7-2.9,31.3-22.2,40.7-55,40.7-56.7s-.7-2.5-.7-3.4.5-1.1,1.3-1.1c1.9,0,6.8,2.1,6.8,4.5s-.2,1.3-.5,2.2c-13.2,38.7-43,58-49.2,58s-1.1-.2-1.1-.7Z"/>
  <path class="cls-1" d="M93.7,18.4c0-.8-.2-1.3-.5-1.9-.5-.9-1.5-1.7-1.5-2.3v-.2c0-.3.8-.5,1.9-.5,6.2,0,6.3,2.2,6.3,3.8v1.3s0,13.4,0,13.5c11.1-1.1,22.2-2.1,22.6-2.1,2.7,0,4.7,2.4,4.7,3.6s-.2.7-.4,1c-.3.5-.5.8-.7,1.4-10.7,35.6-43.3,53.9-47.9,53.9s-1.4-.8-1.4-1c0-.7.9-1.4,2.6-2.5,9.7-6.6,30.5-22.7,39.3-50.4-12.5.8-39.9,3.8-42,3.9,1.5,6.5,2.1,13.1,2.1,14.4,0,2.9-.6,4-2,4.4-.2,0-.3,0-.5,0-1.8,0-3.7-2.4-4.1-4.4,0-.2,0-.5,0-.7,0-.7.2-1.4.2-2.1v-.3c0-2.1-.9-13.3-2.5-18.2-.2-.7-.7-2.3-.7-3.6s0-1.3.6-1.6c.6-.4,1-.6,1.4-.6,1.5,0,3,3.7,4,6.8,1.8,0,7.3-.6,18.6-1.7v-14.3Z"/>
  <path class="cls-1" d="M154.6,38.8c-1.9,26.4-14.5,39-22.6,45.4-1.3,1-2.3,1.5-2.9,1.5s-.7-.3-.7-.7c0-.7.7-2,2-3.1,6-5.9,16.1-19.9,17.8-41.9v-.4c0-2.1-1.1-2.9-1.1-4s0-.4,0-.6c0-.3.6-.4,1.2-.4,1.2,0,3,.4,3.9.7,1.6.5,2.3.9,2.3,2.8v.7ZM162.8,78.2c0-.8.3-1.4.3-2.3,0-17.8,0-40.1,0-46.1s-1.7-4-1.7-5.1h0c0-.5.7-.7,1.4-.7,1.2,0,3,.4,4.2.8,2.1.8,2.4,2.1,2.4,3.8v2c0,2.1-.2,31.9-.2,42.8,11.2-7.5,24.6-19.2,32.7-30.3,1.4-1.7,2.3-2.4,2.9-2.4s.7.4.7,1-.3,2-.9,3.2c-9.3,18.3-36.3,38.2-38.1,38.2s-3.7-4-3.7-4.6v-.4Z"/>
  <path class="cls-1" d="M289,92.3c-16.5-.6-44.5-5.8-58.4-8.7-2.7-.6-5.5-1.1-8.7-1.1s-6,.5-9.6,1.7c-.6.2-1,.3-1.5.3-.7,0-2.3-.4-2.3-4s.7-1.9,6.8-2.7c4.7-4.2,8.4-8.3,10.8-11.4,0-.2.2-.3.2-.5,0-.7-3.3-3.4-6.8-5.7-1.7-1.1-2.4-2.2-2.4-3.6s.6-2.4,1.6-4l6-8.7-8.6,1.1c-.8,0-1.5.2-2,.2-3,0-4.6-3-5-4.5,0-.2,0-.4,0-.6,0-.5.2-.7.6-.7s.4,0,.6,0c.9.2,1.9.3,2.8.3s.9,0,1.4,0l13.9-1.5c.4,0,.7,0,.9,0s3.6,1.2,3.6,3.1-1.1,1.9-1.7,2.5c-.6.7-8.6,11.1-8.6,12s.2.5.5.7c2.6,1.7,4.7,3.5,7.2,5.8,1.1,1,1.8,2.3,1.8,3.7s-.6,2.6-1.7,3.8c-2.4,2.6-4.9,5.3-7.4,7.7,2.7,0,5.4.5,8.5,1,14.1,2.8,42.1,7.9,60.3,7.9h.5c1.4,0,2.1.2,2.1.8s-1.6,5.1-4.7,5.1h-.7ZM227.8,32.4c-.8,0-1.5-.6-2.2-1.8-3.1-4.5-6.8-8.8-10.3-12.1-.7-.7-1.1-1.3-1.1-1.9,0-1.1,2.3-2.6,3.2-2.6,2,0,14.2,12.9,14.2,14.9s-2.1,3.6-3.7,3.6ZM246.6,43c-1.7,12.9-5.1,22.5-12.8,31.2-1.2,1.3-2.1,1.9-2.6,1.9s-.7-.3-.7-.7.4-1.7,1.2-2.9c7.3-11.8,10-24.9,10.7-41.5l-3.3.3c-.7,0-1.3,0-1.9,0-.9,0-1.7,0-2.4-.7-.9-1-1.6-2.5-1.9-3.6,0-.2,0-.4,0-.5,0-.3.2-.4.5-.4h.2c1.4.2,2.7.4,4.1.4h.8l6.8-.5v-11.3c0-.8-.2-1.8-1-2.8,0-.2-.2-.4-.2-.5,0-.5.6-.7,1.5-.7s1.2,0,2,.3c2,.5,3.2.9,3.2,2.1l-.3,12.5h1.6c1.9-.2,2.9-.7,3.8-1,.3-.2.6-.2.9-.2,1.7,0,4.7,2.6,4.7,3.6s-.7,1.2-2.1,1.3l-11.6,1c-.2,2.6-.4,5.2-.7,7.8l7.1-.4h.7c.8,0,1.6,0,2.4.7,1.3,1.1,1.6,1.9,1.6,2.5s-.4,1.4-.5,2.3c-.4,9.1-1.2,18.3-2.6,26.8-1.3,7.6-5.5,8.1-6.1,8.1-1.6,0-3.8-1.8-7.8-8.1-.6-.8-.8-1.5-.8-2s.3-.7.7-.7,1.1.4,2,1c1.3,1,3.3,2.4,4.9,3.2,0,0,.3,0,.4,0,.4,0,.7-.2.7-.5,2.4-9.4,3.1-19.1,3.5-28.8l-6.7.3ZM279.7,56.7c.7,4,.8,7.8.8,11,0,10.8-2.6,14.3-5.6,14.3s-10.7-8.4-10.7-10.5.2-.6.6-.6c.6,0,1.4.4,2.5,1.1,5,3.4,5.8,3.4,6.1,3.4.5,0,.8-.3.9-.8.7-3.3.9-6.6.9-9.9s-.2-5.3-.6-7.8l-7.3.5c-.6,0-1.1,0-1.6,0-4,0-5-3-5.3-4.3,0-.2,0-.3,0-.4,0-.3.2-.5.6-.5s.3,0,.5,0c1.2.3,2.4.5,3.8.5h.8l7.6-.6c-.8-3.2-2.1-5.8-3.4-8-.2-.4-.3-.7-.3-.9,0-1.1,2.4-2.3,3.4-2.3s1.1.4,1.6,1.1c1.7-1.9,3.5-4.2,4.8-6.5l-8.2.9c-.9,0-1.7.2-2.2.2-1.5,0-3-.3-4.1-4,0-.2,0-.4,0-.6-1.9,3.2-4.2,5.8-5.1,5.8s-.6-.3-.6-.7.3-1.3.7-2.3c5.5-10.6,8.1-22.8,8.1-23.8s0-1.2-.4-1.9c0-.2,0-.4,0-.6,0-.5.2-.7.8-.7,1,0,5.6,1.4,5.6,3.6s0,.4,0,.6c-1,3.5-2.1,6.2-3.3,9.2l10.8-1.1c1.1,0,2.1,0,3.6-.7.3,0,.5-.2.7-.2,1.6,0,4.3,2.6,4.3,3.6s-.6,1.3-1.7,1.4l-19.9,1.5c-1,2.1-2.2,4.1-3.5,6.1,0,0,.2,0,.5,0h.3c.8.3,1.6.4,2.5.4s.8,0,1.4,0l12.4-1h.6c.6,0,3.9.7,3.9,2.4s-1.3,2.2-1.7,2.7c-2.4,3.6-5.1,6.8-8.2,9.8.7,1.8,1.4,3.8,1.9,6l4.4-.3c1.8,0,2.8-.3,4.1-.7.3,0,.5-.2.7-.2,1,0,4.1,2.1,4.1,3.6s-.7,1.3-1.9,1.4l-10.7.7Z"/>
  <path class="cls-1" d="M345.6,73.9l-.2,6.7v.4c0,2.9.9,3.8,12.3,3.8s8.8-.3,12.2-.8c2-.3,2.7-.6,3.4-2.4,1-2.7,1.9-6.1,2.4-9.3.3-1.9.9-2.8,1.5-2.8,1,0,1.2,2.3,1.2,6.3,0,11.9-2.1,13.2-7.6,13.8-4,.5-8.7.7-13.3.7-10.7,0-17.9,0-17.9-8.1v-.5l.2-7.6-5,.2c-6.1,11.6-18.4,16.9-31.5,18.6-.4,0-.7,0-1,0-1,0-1.6-.3-1.6-.7,0-.6.7-1.1,2.2-1.6,12-3.5,21.2-8.1,25.4-16.3l-5.7.2v1.2c0,1-.4,1.5-1.1,1.5s-1.1-.2-2-.6c-1.6-.8-2.4-1.4-2.4-2.9v-.3c0-1,.3-2.2.3-3.6v-.7l-.7-16.8c0-1.1-.4-2.4-1-4-.2-.4-.2-.7-.2-.9,0-.5.2-.7.8-.7.9,0,2.7.5,5.9,1.6l32.7-1.8h.7c.9,0,4.2.7,4.2,3.3s-.3,1.1-.3,1.5l-1.6,17.7c1.7,1.7,2.2,2.6,2.2,3.3s-1.2.9-2.2,1l-12.4.5ZM339.9,43.5l-29.1,1.5v2.6c0,1.2-.4,1.9-1.3,1.9s-4.4-1.2-4.4-3,0-.6,0-.8c.5-2,.7-4,.7-6.2v-20.1c0-2.2-.6-4.1-1-5.3-.2-.5-.3-.8-.3-1.2s.2-.7.8-.7c.9,0,2.7.6,5.7,1.9l21.2-1.3c1.2,0,2.1-.3,3.2-.7.4-.2.7-.3,1-.3,1,0,4,2.1,4,3.6s-.9,1.1-2.1,1.2l-12.9.7v5.3c0,0,7.2-.5,7.2-.5,2.8,0,3.6,2.1,3.6,2.5s-.5,1.1-.7,1.6l-.8,4.5c1.3,1.3,1.8,2.1,1.8,2.5,0,.7-1,.7-2.1.8l-9.1.6-.2,5.5,8.5-.6c1.3,0,2.2-.3,3.4-.7.3,0,.5-.2.7-.2,1.5,0,3.6,2.7,3.6,3.6s-.7,1.1-1.5,1.2h-.2ZM320.7,17.6l-10,.6v5.4l9.9-.7v-5.3ZM331.1,26l-20.4,1.3v4.8l19.6-1.2.7-4.9ZM320.7,35l-9.9.6v5.5l9.8-.6v-5.5ZM354.2,50.8l-32.3,1.6v3.4c0,0,32.1-1.4,32.1-1.4l.2-3.6ZM353.7,58.1l-31.6,1.3v3.7c0,0,31.4-1.3,31.4-1.3l.2-3.7ZM353.3,65.6l-30.9,1.2v3.8c0,0,30.6-.9,30.6-.9l.3-4.1ZM373.5,23.6l-24.7,1.5c-5.2,7.2-8.8,10-9.9,10s-.7-.3-.7-.7.3-1.1.8-2c3.5-5,9.9-16.7,9.9-21.1s0-1-.2-1.5c0-.2,0-.4,0-.5,0-.5.3-.7.8-.7,1.4,0,5.5,2.3,5.5,3.8s-1.7,5-3.4,7.8l15.2-.9c1.3,0,2.3-.3,3.7-.7.2,0,.3,0,.5,0,1.2,0,4.3,2.2,4.3,3.7s-.7,1.3-1.7,1.4h-.2ZM369.4,36.4l-17.1.8c-1.1,0-2,0-2.7,0-3.6,0-4.6-4.6-4.6-4.7,0-.3.2-.4.5-.4h.3c1.1.3,2.6.6,4.2.6h.7l12.2-.7c1.7,0,2.7-.3,3.6-.7.2,0,.3,0,.5,0,1.4,0,4.2,2.5,4.2,3.7s-.7,1.1-1.6,1.2h-.2Z"/>
</svg>