<?xml version="1.0" encoding="UTF-8"?>
<svg id="_레이어_1" data-name="레이어 1" xmlns="http://www.w3.org/2000/svg" version="1.1" viewBox="0 0 380 100">
  <defs>
    <style>
      .cls-1 {
        fill: #fff;
        stroke-width: 0px;
      }
    </style>
  </defs>
  <path class="cls-1" d="M37.88,41.68c6.71,1.57,12.21,4.36,16.53,8.36,4.31,4,6.47,8.26,6.47,12.76,0,2.57-.91,4.77-2.73,6.59-1.82,1.82-4.01,2.73-6.58,2.73s-4.76-.91-6.58-2.73c-1.82-1.82-2.73-4.02-2.73-6.59,0-1.21.18-2.7.54-4.45.36-1.75.55-3.05.59-3.91s-.23-2.32-.8-4.4c-1-2.57-3.07-4.5-6.2-5.79-7.64,12.58-17.37,21.87-29.21,27.87-1.78.86-3.23,1.23-4.33,1.13-1.11-.1-1.87-.48-2.3-1.13-.64-1-.07-2.43,1.71-4.29,6.35-6.72,11.8-14.26,16.37-22.62,4.56-8.36,7.28-15.79,8.13-22.29.14-1-.25-2.45-1.18-4.34-.93-1.89-1.25-3.3-.96-4.23.71-2.22,2.93-3.22,6.64-3.01,2.93.22,5.56.91,7.92,2.09,2.35,1.18,4.03,2.48,5.03,3.91,1.42,2.14,1.28,5.86-.43,11.15-1.64,4.72-3.6,9.11-5.88,13.18ZM86.24,4.8c1.14,1.15,1.71,3,1.71,5.57v73.11c0,5.64-1.23,9.81-3.69,12.49-2.46,2.68-5.58,4.02-9.36,4.02-1.28,0-2.25-.43-2.89-1.29-.64-.86-.96-1.79-.96-2.79v-54.03c-1.28.14-2.1.21-2.46.21-1.35.07-2.89.32-4.6.75-.43.07-1.46.36-3.1.85-1.07.36-2.21.47-3.43.32-1.28-.14-2.46-.57-3.53-1.29-.64-.43-1-.68-1.07-.75-1.28-1.14-2.03-2.5-2.25-4.07-.07-.64.11-1.16.54-1.55s.96-.55,1.61-.48c1.85.22,5.17.32,9.95.32,3.85,0,6.64-.03,8.35-.1v-19.62c0-3-.43-5.25-1.28-6.75-1.28-2-2.1-3.39-2.46-4.18-.71-1.71-.7-3.02.05-3.91.75-.89,1.87-1.41,3.37-1.55,6.92-.5,12.09,1.07,15.51,4.72Z"/>
  <path class="cls-1" d="M182.54,42.97c2.28,0,4.12.55,5.51,1.66,1.39,1.11,2.02,2.41,1.88,3.91-.07,1.07-.64,1.97-1.72,2.68-1.07.72-2.39,1.03-3.96.96-12.06-.36-23.15-.46-33.28-.32v2.79c0,2.15-.47,4.5-1.39,7.08,1.57,0,2.75-.03,3.53-.1,1.85-2.07,4.57-3.11,8.13-3.11,2.93,0,5.26.7,7.01,2.09,1.75,1.4,2.62,3.49,2.62,6.27,0,1-.36,2.32-1.07,3.97-.43,1.07-1.03,2.11-1.82,3.11,1.93.57,2.86,1.79,2.78,3.64-.07,2.36-1.82,3.54-5.24,3.54h-32.74v6.76c0,1.5.96,2.25,2.89,2.25h9.52c.57,0,1.57-.02,3-.05,1.42-.04,2.17-.06,2.25-.06.36-.07.91-.14,1.66-.21s1.3-.1,1.66-.1c1.42-.15,2.49-.32,3.21-.54.43-.14,1.11-.41,2.03-.81s1.64-.66,2.14-.8c1.99-.57,3.53-.86,4.6-.86,2.71,0,4.83.52,6.37,1.56,1.53,1.03,2.19,2.45,1.98,4.23-.14.86-.66,1.61-1.55,2.26-.89.64-2.12.96-3.69.96h-38.73c-4.42,0-7.9-.77-10.44-2.31-2.53-1.54-3.8-3.66-3.8-6.38v-1.18c0-1.43-.39-2.61-1.18-3.54-1.64-1.79-2.53-2.82-2.68-3.11-.5-.72-.59-1.52-.27-2.41s1.05-1.48,2.19-1.77c1.78-.43,4.4-.66,7.86-.7,3.46-.03,6.61.34,9.47,1.13h22.15v-8.47c-6.64-.07-14.3.4-23.01,1.4-.57.07-1.35.31-2.35.7-1,.39-1.75.66-2.25.8-2,.43-4.32.03-6.96-1.18-2.21-1.14-3.67-2.54-4.39-4.18-.5-1.14-.66-2.07-.48-2.79.18-.71.66-1,1.45-.85,3.92.72,8.24,1.07,12.94,1.07.78,0,1.85.02,3.21.06,1.35.03,2.35.05,3,.05-.36-1.93-.54-3.68-.54-5.25v-4.72c-8.85.21-15.59.54-20.22.97-1.43.14-3,.5-4.71,1.07-2.71.93-5.46.72-8.24-.64-2.49-1.14-4.28-2.97-5.35-5.47-.5-1-.59-1.84-.27-2.52s.98-.95,1.98-.8c3.57.64,8.38,1.11,14.44,1.39,4.42.14,14.25.14,29.48,0,15.23-.14,25.2-.36,29.91-.64,1.14-.07,2.93-.54,5.35-1.4,1.78-.71,3.81-1.07,6.1-1.07ZM162.42,36.91c-4.92,2.89-11.66,4.34-20.22,4.34s-15.3-1.45-20.22-4.34c-4.92-2.9-7.38-7.09-7.38-12.6,0-5.07,2.09-9.04,6.26-11.9,4.17-2.86,9.97-4.5,17.39-4.93-.07-.14-.16-.31-.27-.48-.11-.18-.23-.38-.37-.59s-.25-.39-.32-.54c-.71-1.07-1.04-1.82-.96-2.25.14-.79.46-1.32.96-1.61.57-.28,1.11-.43,1.61-.43,2.28-.14,4.35.13,6.2.8,1.85.68,2.93,1.56,3.21,2.63.22.86-.03,1.72-.75,2.57,6.99.58,12.45,2.27,16.38,5.09,3.92,2.82,5.88,6.7,5.88,11.63,0,5.5-2.46,9.7-7.38,12.6ZM150.22,15.69c-1.79-1.75-4.46-2.63-8.02-2.63s-6.24.88-8.03,2.63c-1.78,1.75-2.67,4.63-2.67,8.63s.89,6.9,2.67,8.68c1.79,1.79,4.46,2.68,8.03,2.68s6.24-.89,8.02-2.68c1.78-1.79,2.67-4.68,2.67-8.68s-.89-6.88-2.67-8.63Z"/>
  <path class="cls-1" d="M273.71,51.87c2.28,0,4.12.55,5.51,1.66,1.39,1.11,2.02,2.41,1.88,3.91-.07,1.07-.64,1.97-1.72,2.68-1.07.72-2.39,1.03-3.96.96-1.92-.07-3.96-.13-6.1-.16-2.14-.03-4.48-.07-7.01-.11-2.53-.03-4.48-.05-5.83-.05v24.34c0,4.93-1.23,8.65-3.69,11.15-2.46,2.5-5.58,3.75-9.36,3.75-1.28,0-2.25-.43-2.89-1.29-.64-.86-.96-1.79-.96-2.79v-35.16c-2.78,0-6.53.07-11.23.21v22.51c0,4.93-1.23,8.63-3.69,11.1-2.46,2.46-5.58,3.7-9.37,3.7-1.28,0-2.25-.43-2.89-1.29-.64-.86-.96-1.79-.96-2.79v-32.7c-.93.07-2.14.16-3.64.27-1.5.11-2.43.16-2.78.16-1.43.14-3,.5-4.71,1.07-2.71.93-5.46.72-8.24-.64-2.49-1.14-4.28-2.97-5.35-5.47-.5-1-.59-1.82-.27-2.46s.98-.89,1.98-.75c3.07.57,7.88,1,14.44,1.29,4.35.14,14.18.16,29.48.05,15.3-.1,25.27-.3,29.91-.59.93-.07,2.71-.57,5.35-1.5,1.78-.72,3.81-1.07,6.1-1.07ZM253.64,43.02c-4.89,3.39-11.65,5.09-20.28,5.09s-15.39-1.7-20.28-5.09c-4.89-3.39-7.33-8.13-7.33-14.21,0-5.57,2.07-10,6.2-13.29,4.14-3.28,9.95-5.18,17.44-5.68-.07-.14-.16-.3-.27-.48-.11-.18-.23-.38-.37-.59-.14-.22-.25-.39-.32-.54-.71-1.07-1.04-1.86-.96-2.36.14-.79.46-1.32.96-1.61.43-.21.96-.32,1.61-.32,2.28-.14,4.35.13,6.2.8,1.85.68,2.93,1.52,3.21,2.52.22,1.07-.03,1.96-.75,2.68,7.06.72,12.54,2.7,16.43,5.95,3.89,3.25,5.83,7.56,5.83,12.92,0,6.08-2.44,10.81-7.33,14.21ZM241.44,18.53c-1.75-2.14-4.44-3.21-8.08-3.21s-6.33,1.07-8.08,3.21c-1.75,2.15-2.62,5.57-2.62,10.29s.89,8.17,2.67,10.35c1.79,2.18,4.46,3.27,8.03,3.27s6.24-1.09,8.02-3.27c1.78-2.18,2.67-5.63,2.67-10.35s-.88-8.14-2.62-10.29Z"/>
  <path class="cls-1" d="M337.47,46.08c.5,1.5-.54,2.9-3.1,4.18-10.28,4.86-22.47,7.29-36.59,7.29-3.36,0-5.89-.95-7.6-2.84-1.71-1.89-2.57-4.38-2.57-7.45v-5.68c0-1.93-.43-3.57-1.28-4.93-.29-.35-.73-.91-1.34-1.66-.61-.75-1.05-1.34-1.34-1.77-.5-.86-.59-1.73-.27-2.63s1.09-1.48,2.3-1.77c1.28-.57,4.1-.8,8.45-.69,4.35.1,7.6.69,9.74,1.77h8.78v-10.61c-3.85-.28-7.64-.03-11.34.75-.43.07-1.16.29-2.19.65-1.04.36-1.87.61-2.52.75-2.21.5-4.49.07-6.85-1.29-2.14-1.22-3.6-2.68-4.38-4.4-.5-1.14-.63-2.07-.37-2.79.25-.71.73-1,1.45-.86,4.28.86,8.63,1.36,13.05,1.5,2.78.07,6.99-.11,12.63-.54,1.85-2.36,4.74-3.54,8.66-3.54,3.14,0,5.56.73,7.28,2.19,1.71,1.47,2.56,3.63,2.56,6.49,0,1.29-.28,2.61-.85,3.97-1,2.07-2.07,4.03-3.21,5.89,2.64.5,3.92,1.79,3.85,3.86-.07,2.36-1.85,3.54-5.35,3.54h-20.55v7.4c0,2.22,1.03,3.32,3.1,3.32,9.34,0,18.3-.43,26.85-1.29,1.64-.21,2.64.18,3,1.18ZM357.7,72.13c0,.93-.1,1.93-.32,3-.5,2.43-1.85,6.79-4.06,13.08,1.35.22,2.39.65,3.1,1.29.71.65,1.04,1.54.96,2.68-.07,2.36-1.82,3.54-5.24,3.54h-32.85c-3.21,2.43-6.27,3.75-9.2,3.97-1.79.14-3.21-.05-4.28-.59s-1.64-1.27-1.71-2.2l-.86-19.72c-.14-1.93-.61-3.46-1.39-4.61-.22-.35-.68-.92-1.39-1.71-.71-.79-1.21-1.43-1.5-1.93-1.14-2-.39-3.5,2.25-4.5,1.5-.72,4.14-1.04,7.92-.97,3.78.07,6.81.72,9.1,1.93h21.08c1.5-1.93,4.25-2.9,8.24-2.9,6.78,0,10.17,3.21,10.17,9.65ZM319.82,90.14h19.15v-19.08h-19.15v19.08ZM371.29,26.14c2.5,0,4.62.88,6.37,2.63,1.75,1.75,2.62,3.88,2.62,6.38s-.88,4.63-2.62,6.38c-1.75,1.75-3.87,2.63-6.37,2.63-5.06,0-9.84-2.22-14.34-6.65v8.15c0,4.93-1.21,8.63-3.64,11.09-2.43,2.47-5.53,3.7-9.31,3.7-1.28,0-2.26-.43-2.94-1.29-.68-.85-1.02-1.78-1.02-2.79V16.49c0-3-.43-5.25-1.28-6.75-1.28-2-2.1-3.39-2.46-4.18-.71-1.71-.7-3.02.05-3.91.75-.89,1.87-1.41,3.37-1.55,6.99-.5,12.2,1.07,15.63,4.72,1.07,1.07,1.6,2.93,1.6,5.57v24.12c2.57,0,4.85-1.47,6.85-4.4,1.71-2.64,4.21-3.97,7.49-3.97Z"/>
</svg>