<?xml version="1.0" encoding="UTF-8"?>
<svg id="_레이어_1" data-name="레이어 1" xmlns="http://www.w3.org/2000/svg" xmlns:xlink="http://www.w3.org/1999/xlink" version="1.1" viewBox="0 0 1296 160">
  <defs>
    <style>
      .cls-1 {
        fill: url(#linear-gradient);
      }

      .cls-1, .cls-2, .cls-3 {
        stroke-width: 0px;
      }

      .cls-2 {
        fill: url(#linear-gradient-2);
      }

      .cls-3 {
        fill: url(#linear-gradient-3);
      }
    </style>
    <linearGradient id="linear-gradient" x1="957.88" y1="158.44" x2="957.88" y2="26.68" gradientUnits="userSpaceOnUse">
      <stop offset="0" stop-color="#8ec6da" stop-opacity="0"/>
      <stop offset=".12" stop-color="rgba(142, 198, 218, .08)" stop-opacity=".08"/>
      <stop offset=".36" stop-color="rgba(142, 198, 218, .3)" stop-opacity=".3"/>
      <stop offset=".69" stop-color="rgba(142, 198, 218, .65)" stop-opacity=".65"/>
      <stop offset="1" stop-color="#8ec6da"/>
    </linearGradient>
    <linearGradient id="linear-gradient-2" x1="957.88" y1="158.44" x2="957.88" y2="-7.59" gradientUnits="userSpaceOnUse">
      <stop offset="0" stop-color="#034b6f" stop-opacity="0"/>
      <stop offset=".18" stop-color="rgba(3, 75, 111, .13)" stop-opacity=".13"/>
      <stop offset=".52" stop-color="rgba(3, 75, 111, .45)" stop-opacity=".45"/>
      <stop offset=".98" stop-color="rgba(3, 75, 111, .98)" stop-opacity=".98"/>
      <stop offset=".99" stop-color="#034b6f"/>
    </linearGradient>
    <linearGradient id="linear-gradient-3" x1="957.88" y1="158.44" x2="957.88" y2="40.17" gradientUnits="userSpaceOnUse">
      <stop offset="0" stop-color="#1e2d5d" stop-opacity="0"/>
      <stop offset=".18" stop-color="rgba(39, 44, 98, .14)" stop-opacity=".14"/>
      <stop offset=".54" stop-color="rgba(63, 44, 113, .49)" stop-opacity=".49"/>
      <stop offset="1" stop-color="#622c86"/>
    </linearGradient>
  </defs>
  <path class="cls-1" d="M1258.08,132.78c-.68-.12-1.52-.33-2.46-.62v-.71l-1.87.1c-8.48-2.93-22.89-9.77-27.55-10.96-8.78-2.24-11.01-1.89-21.42.36-.59.13-1.17.24-1.68.32v-8.34c3.15-.32,3.17-.83,3.17-1.01.01-.37-.45-.68-2.63-1.01.43-.3.87-.74.84-1.23-.03-.43-.39-.8-1.09-1.1v-.73c1.27-.26,2.62-.68,2.57-1.25-.04-.48-.9-.76-3.04-.96h-.17v-21.04c1.23-.1,5.1-.43,6.34-.97.12-.05.2-.15.2-.26v-6.96c0-.14-.14-.27-.33-.3l-1.71-.26v-1.91c.55-.18,1.48-.56,1.42-1.1-.06-.5-.87-.85-2.64-1.12v-1.27c0-.06-.02-.11-.06-.16-.03-.04-.67-.79-1.92-1.08v-1.23c0-.06-.02-.12-.07-.17-.03-.03-.25-.26-.74-.35v-1.14s0-.06-.02-.09l-.46-1.12v-9.77c0-.06-.02-.12-.07-.17l-.47-.53v-7.88c0-.05-.02-.11-.06-.15l-.3-.38v-14.74c0-.14-.13-.26-.32-.3v-4.21c0-.17-.18-.3-.41-.3h-.59c-.23,0-.41.14-.41.3v4.21c-.18.03-.32.15-.32.3v14.74l-.3.38s-.05.1-.05.15v7.88l-.47.53s-.07.11-.07.17v9.77l-.46,1.12s-.02.06-.02.09v1.14c-.49.09-.71.32-.74.36-.04.05-.06.11-.06.16v1.23c-1.25.29-1.89,1.05-1.92,1.08-.04.05-.06.1-.06.16v1.27c-1.76.27-2.58.62-2.64,1.12-.06.55.86.92,1.41,1.1v1.91l-1.71.26c-.19.03-.33.15-.33.3v6.96c0,.11.08.21.2.26,1.24.54,5.1.87,6.33.97v21.05h-.22c-2.08.2-2.94.48-2.98.96-.04.57,1.31.99,2.58,1.25v.73c-.7.3-1.07.67-1.1,1.1-.03.49.41.93.84,1.23-2.18.34-2.64.64-2.63,1.01,0,.17.03.69,3.18,1.01v8.98c-7.7,1.71-14.61,4.21-21.28,6.64-5.49,1.99-10.68,3.88-15.98,5.2v-33.37c0-.08-.04-.16-.12-.21l-.78-.58v-1.02c0-.09-.05-.17-.13-.22l-.93-.64v-1.2c0-.17-.18-.3-.41-.3h-22.62c-.23,0-.41.14-.41.3v1.39h-.41c-.23,0-.41.14-.41.3v1.75h-.41c-.23,0-.41.14-.41.3v12.93c-1.35.49-2.63,1-3.8,1.53h-.95v-9.8h-18.87v-22.66h-19.51v1.99h-8.58v33.1h-12.61v-20.85h-23.35v20.4h-7.45v9.53h-11.27v-47.5h-21.6v38.05h-11v6.77h-11.07v-13.16h-25.36v23.29h-12.68v-15.49h-22.74v7.45h-15.67v-41.18h-24.78v8.14h-1.82v44.66h-10.54v-28.74h-23.68v21.74h-10.02v-58.01h-28.09v33.67l-6.24.03v5.4h-3.96v10.28h-6.84v-31.86h-26.37v45.78h-19.52v-6.09h-27.37v7.73h-11.07v-31.61h-19.72v17.82h-7.95v-56.41h-21.76v3.04h-5.27s0,38.9,0,38.9h-5.85v-19.49h-22.92v18.89l-1.26.49v14.74h-2.22v34.69h674.71v-12.89c-1.29-.95-35.2-12.43-37.16-12.76Z"/>
  <path class="cls-2" d="M1295.24,128.38v30.06h-674.71v-27.02h3.47v-19.5h24.87v24.74h14.28v-22.14h41.67v25.64h9.54c.84-25.56,3.33-75.74,10.58-113.48h1.43v108.92h3.06V26.68h1.43c6.83,35.6,9.44,82.28,10.42,108.92h1.36v-9.25h24.25v12.85h5.75v-17.97h12.62v-12.13h28.97v4.33h6.15v13.21h24.9v-14.9h12.12v-10.15l7.85-.76,24.64.47v23.33h10.97v18.01h7.17v-9.56h40.97v9.56h13.47v-18.94s16.34-1.81,33.95,0v17.79h5.23v-12.27h22.84v7.23h5.01v-21.94l6.92-.98v-9.34h28.86v17.66h12.72v9.34h10.84v-13.47l5.46-.75h17.41v11.4h8.87v-12.93h5.33v-13.85l32,1.59v13.79h10.34v12.69h14.73v-19.37h31v19.37h13.94v10.48h11.66v-4.81h20.27v-37.42h6.05l2-2.89h22.97v33.34h4.39Z"/>
  <path class="cls-3" d="M1289.18,149.16v-18.74l-41.26-2.05v14.51h-4.68v-9.85l-4.39-1.73v-8.44l-38.92-1.52v25.66h-9.27v-23.6c-19.51-3.46-41.07,0-41.07,0v14.29h-8.49v-22.19h-6.44v-4.33h-31.02v32.59h-9.36v-12.46l-40.12-2.6v7.04h-6.63v1.71h-20.98c-.19,0-.35.11-.35.26v9.22h-1.98c-.05,0-.1,0-.14.02-.93.32-1.75.21-2.41-.32l-1.67-1.24c-.07-.05-.15-.08-.25-.08h0l-7.87.08v-8.8c.35-.15,1.02-.52,1.35-1.3,1.09-.5,9.45-4.41,14.6-8.72l3.33-1.58c.13-.06.19-.18.15-.28-.04-.11-.17-.19-.32-.19l-1.41-.06-1.06-.45v-1.23c0-.08-.05-.16-.15-.21-.09-.05-.21-.07-.32-.03-.09.02-9.09,2.27-20.27.87l1.58-1.43h2.01c.42-.02,2.43-.94,11-11.8l1.05-.78,1.16-.4c.11-.04.19-.12.2-.21l.1-.9c0-.08-.04-.16-.12-.22-.08-.05-1.82-1.58-1.93-1.62-.11-.05-.25-.04-.36,0-.04.02-4.8,2.17-23.45,1.64-.55-.24-4.39-1.99-4.97-5.34v-2.08c0-.14-.16-.26-.35-.26h-2.15c-.19,0-.35.11-.35.26v.83c0,.14-.84.83-.84.83-1.45.24-9.04,1.33-26.12,1.33s-24.67-1.09-26.12-1.33c0,0-.84-.69-.84-.83v-.83c0-.14-.16-.26-.35-.26h-2.15c-.19,0-.35.11-.35.26v2.04c-.58,3.37-4.41,5.14-4.97,5.38-18.66.53-23.4-1.62-23.45-1.64-.11-.05-.25-.06-.36-.01-.11.05-1.85,1.57-1.93,1.62-.09.05-.13.13-.12.22l.1.9c0,.09.09.18.2.21l1.16.4,1.04.78c8.57,10.86,10.58,11.78,11.03,11.8h1.99l1.58,1.43c-11.18,1.4-20.18-.85-20.27-.87-.11-.03-.23-.01-.32.03-.09.05-.15.13-.15.21v1.23l-1.06.45-1.41.06c-.15,0-.28.08-.32.19-.04.11.02.22.15.28l3.32,1.58c5.15,4.31,13.52,8.22,14.6,8.72.33.78,1,1.16,1.35,1.31v9.14l-8.56-.02h0c-.1,0-.19.03-.25.08-.95.76-2.33,1.32-2.85,1.14-.04-.01-.1-.02-.14-.02h-2.15v-5.83c0-.14-.16-.26-.35-.26h-3.54v-.84c0-.14-.16-.26-.35-.26h-.99v-1.03c0-.14-.16-.26-.35-.26h-4.3l-24.16-3.39v-2.15h-4.63v-12.73h-5.27v-3.9h-29.56v4.11h-4.39v19.44h-5.56v-6.37l-23.21,1.02v-7.39s-32.96-.27-32.96,0v15.78h-7.37v-6.37h-36.43v9.41h-10.84v-17.97c-18-1.93-35.13,0-35.13,0v14.92h-8.99v-19.93h-5.42v-4.55h-30.44v15.59h-4.39v15.45l-3.47.82v8.16h674.71v-9.27h-6.06ZM990,137.75h15.97v7.67l-15.97.06v-7.74ZM954.63,137.75h19.2v7.8l-19.2.06v-7.87ZM922.39,137.75h16.55v7.93l-16.55.06v-8Z"/>
</svg>